<svg width="256" height="256" viewBox="0 0 256 256" fill="none" xmlns="http://www.w3.org/2000/svg">
<g clip-path="url(#clip0_327_24606)">
<rect width="256" height="256" rx="128" fill="#E7E8EC"/>
<path d="M256 -53H0V284.882H256V-53Z" fill="#F9F9FB"/>
<path d="M256 -53H0V17.8869H256V-53Z" fill="#B3B3B3"/>
<path d="M205.832 53.9172H49.1367V175.956H205.832V53.9172Z" fill="#E6E6E6"/>
<path d="M85.8523 62.8606H66.4922V82.2241H85.8523V62.8606Z" fill="#B3B3B3"/>
<path d="M112.68 62.8606H93.3164V82.2241H112.68V62.8606Z" fill="#B3B3B3"/>
<path d="M139.508 62.8606H120.145V82.2241H139.508V62.8606Z" fill="#B3B3B3"/>
<path d="M188.714 62.8606H147.266V82.2241H188.714V62.8606Z" fill="#B3B3B3"/>
<path d="M85.8523 90.7825H66.4922V110.143H85.8523V90.7825Z" fill="#B3B3B3"/>
<path d="M112.68 90.7825H93.3164V110.143H112.68V90.7825Z" fill="#B3B3B3"/>
<path d="M188.714 90.7825H147.266V110.143H188.714V90.7825Z" fill="#B3B3B3"/>
<path d="M85.8523 118.56H66.4922V137.924H85.8523V118.56Z" fill="#B3B3B3"/>
<path d="M112.68 118.56H93.3164V137.924H112.68V118.56Z" fill="#B3B3B3"/>
<path d="M112.68 146.711H93.3164V166.075H112.68V146.711Z" fill="#B3B3B3"/>
<path d="M139.508 118.56H120.145V137.924H139.508V118.56Z" fill="#B3B3B3"/>
<path d="M188.714 118.56H147.266V137.924H188.714V118.56Z" fill="#B3B3B3"/>
<path d="M139.508 90.7825H120.145V110.143H139.508V90.7825Z" fill="#B3B3B3"/>
<path opacity="0.15" d="M149.578 10.4497L144.789 13.3149H14.9844V33.4316H60.774C60.8342 30.2785 65.7245 27.7313 82.5742 27.7313C99.4207 27.7313 104.826 30.2785 104.887 33.4316H150.164V13.3149L149.578 10.4497Z" fill="black"/>
<path d="M14.3945 10.4497V30.5663H60.1841C60.2444 27.4133 65.1346 24.8661 81.9844 24.8661C98.8308 24.8661 104.237 27.4166 104.297 30.5663H149.574V10.4497H14.3945Z" fill="#636363"/>
<path opacity="0.15" d="M183.729 18.5498H161.762V33.4314H183.729V18.5498Z" fill="black"/>
<path opacity="0.15" d="M236.214 18.5498H218.156V33.4314H236.214V18.5498Z" fill="black"/>
<path d="M228.898 19.5466H172.184V22.1842H228.898V19.5466Z" fill="#FFFF00"/>
<path d="M222.397 17.6438H181.949V19.5484H222.397V17.6438Z" fill="black"/>
<path d="M183.315 10.4497H161.348V30.5663H183.315V10.4497Z" fill="#636363"/>
<path d="M235.628 10.4497H217.57V30.5663H235.628V10.4497Z" fill="#636363"/>
<mask id="mask0_327_24606" style="mask-type:luminance" maskUnits="userSpaceOnUse" x="0" y="-53" width="256" height="338">
<path d="M256 -53H0V284.882H256V-53Z" fill="white"/>
</mask>
<g mask="url(#mask0_327_24606)">
<path opacity="0.15" d="M264.125 295.991L219.842 221.721C219.842 221.721 218.557 222.31 216.294 223.377L207.26 208.436C207.26 208.436 206.989 208.536 206.507 208.717C203.869 203.596 201.566 198.816 201.473 197.42C201.195 193.313 200.663 189.229 199.946 185.246C199.588 183.255 199.183 181.286 198.741 179.355C197.416 173.558 195.752 168.068 193.978 163.141C193.386 161.498 192.783 159.918 192.177 158.408C191.572 156.899 190.959 155.463 190.357 154.107C190.353 154.097 190.347 154.087 190.343 154.077C190.199 153.756 190.029 153.404 189.835 153.033C189.764 152.899 189.681 152.748 189.604 152.604C189.466 152.35 189.332 152.096 189.175 151.825C189.061 151.624 188.934 151.413 188.814 151.205C188.68 150.974 188.546 150.747 188.402 150.509C188.255 150.265 188.097 150.01 187.94 149.759C187.806 149.545 187.676 149.331 187.538 149.11C187.354 148.819 187.163 148.521 186.969 148.22C186.852 148.039 186.738 147.861 186.618 147.677C186.394 147.329 186.163 146.981 185.928 146.63C185.838 146.496 185.751 146.362 185.661 146.225C185.393 145.826 185.125 145.428 184.854 145.026C184.804 144.953 184.75 144.876 184.7 144.799C184.389 144.34 184.074 143.885 183.759 143.43C180.566 138.827 177.353 134.536 176.61 133.555C173.453 129.385 170.943 124.317 164.208 126.563C159.311 128.197 162.602 136.216 162.783 137.492C158.277 126.71 155.626 124.712 152.349 123.899C150.428 123.424 147.044 123.768 145.039 124.351C140.266 125.736 141.307 132.956 142.495 139.289C137.066 127.818 133.28 124.113 130 123.213C125.438 121.961 117.368 124.009 115.661 129.562C114.516 133.281 118.087 143.266 119.276 148.31C116.183 144.33 89.4388 98.1824 85.6765 92.5926C84.1067 90.0855 82.1385 88.5424 80.0767 87.709C79.6181 87.3307 79.1428 87.0161 78.6173 86.8555C76.5822 86.2362 73.389 87.0429 71.3472 88.4018C71.2836 88.442 71.23 88.4922 71.1697 88.5324C70.8484 88.76 70.5606 88.9977 70.3163 89.2487C66.9155 92.6394 67.9766 99.3238 72.0167 107.631C72.1305 107.862 72.2643 108.147 72.3848 108.395C75.7253 115.33 81.9779 129.104 87.5376 141.006C87.5811 141.103 87.628 141.2 87.6715 141.298C88.0899 142.191 88.4982 143.065 88.9066 143.932C89.0204 144.173 89.1341 144.42 89.2479 144.658C89.6429 145.495 90.0245 146.305 90.4061 147.108C90.5132 147.336 90.627 147.577 90.7341 147.801C91.0989 148.568 91.4505 149.297 91.7986 150.024C91.9157 150.271 92.0396 150.532 92.1567 150.773C92.4981 151.483 92.8227 152.146 93.1441 152.809C93.2512 153.029 93.3683 153.274 93.4754 153.488C93.7298 154.007 93.9642 154.475 94.2052 154.957C93.8002 155.439 93.4989 156.109 93.3416 156.966C92.0931 163.734 91.6412 174.887 90.8848 182.217C90.5735 185.229 90.2755 188.362 91.283 191.218C92.4612 194.551 95.2462 197.028 98.0277 199.211C107.781 206.866 120.263 214.434 132.192 219.806C135.881 221.985 140.403 224.713 143.071 226.852C143.369 227.093 143.647 227.324 143.894 227.548C144.252 227.997 144.654 228.549 145.089 229.171C145.106 229.195 145.126 229.225 145.143 229.248C145.575 229.871 146.036 230.567 146.525 231.327C147.044 232.134 147.586 233.001 148.152 233.928C148.527 234.54 148.908 235.176 149.297 235.829C149.32 235.866 149.34 235.903 149.364 235.939C149.447 236.083 149.534 236.234 149.621 236.378C149.591 236.395 149.561 236.411 149.531 236.428C149.524 236.431 149.514 236.438 149.508 236.442C149.29 236.565 149.039 236.706 148.835 236.823C146.123 238.376 144.601 239.29 144.601 239.29L154.415 257.696C151.516 259.892 150.13 261.157 150.13 261.157L185.985 337.366L197.275 331.385L254.549 301.042L264.125 295.991Z" fill="black"/>
</g>
<mask id="mask1_327_24606" style="mask-type:luminance" maskUnits="userSpaceOnUse" x="0" y="16" width="256" height="269">
<path d="M256 16H0V284.882H256V16Z" fill="white"/>
</mask>
<g mask="url(#mask1_327_24606)">
<path d="M102.091 194.117C100.876 191.342 100.946 188.196 101.036 185.17C101.257 177.803 100.896 166.65 101.649 159.809C102.402 152.967 112.711 156.973 115.567 176.307C117.953 192.46 138.016 204.879 144.972 219.656C132.681 215.168 119.684 208.527 109.398 201.602C106.466 199.623 103.51 197.354 102.091 194.117Z" fill="#FCAE60"/>
<path d="M178.333 257.587C178.333 257.587 162.839 232.617 157.198 226.522C152.971 223.242 141.651 218.177 139.217 216.728C129.745 211.085 104.296 163.735 102.904 158.661C95.8779 146.899 82.2281 121.537 76.7856 112.152C71.4033 102.87 70.1715 95.4725 75.6308 92.4166C79.6441 90.1706 85.3243 90.7128 89.3108 96.152C93.468 101.451 123.502 145.53 126.876 149.275C125.323 144.335 121.035 134.635 121.906 130.842C123.204 125.182 131.104 122.548 135.746 123.465C139.083 124.125 143.13 127.545 149.379 138.591C147.733 132.362 146.17 125.236 150.829 123.509C152.784 122.782 156.134 122.193 158.086 122.528C161.416 123.097 164.204 124.901 169.483 135.324C169.208 134.066 165.346 126.307 170.109 124.322C176.659 121.591 179.531 126.461 182.985 130.394C184.495 132.111 195.353 144.603 198.188 149.881C203.808 160.348 210.121 175.959 212.427 192.27C212.698 194.195 217.682 202.302 221.799 208.859C225.98 215.516 231.048 223.647 231.048 223.647L178.333 257.587Z" fill="#F49F51"/>
<path d="M231.049 223.644C231.049 223.644 225.982 215.514 221.801 208.856C217.684 202.299 212.7 194.192 212.429 192.268C210.123 175.957 203.81 160.346 198.19 149.879C196.881 147.439 193.855 143.462 190.833 139.72C201.018 160.64 213.239 197.817 211.147 201.831C209.055 205.844 177.22 221.288 161.906 232.581C168.745 242.141 178.331 257.592 178.331 257.592L231.049 223.644Z" fill="#ED9145"/>
<path d="M102.905 158.663C104.298 163.737 129.75 211.09 139.219 216.73C141.652 218.179 152.973 223.244 157.2 226.524C157.993 227.381 158.987 228.622 160.099 230.105C173.501 221.861 205.356 204.918 207.123 199.107C208.891 193.296 200.278 161.956 183.08 133.72C180.493 129.472 177.099 125.321 172.811 127.423C168.524 129.525 173.056 136.25 170.401 137.338C167.747 138.426 161.026 124.947 153.833 127.099C146.64 129.251 153.361 142.516 151.573 144.571C149.786 146.626 139.279 125.154 130.556 128.826C121.837 132.498 132.053 151.49 127.818 153.803C123.584 156.116 95.0226 108.157 91.1164 103.076C87.381 97.851 83.3911 97.1582 79.4146 99.4744C75.2574 101.894 74.8925 106.718 77.1987 112.877C82.8789 122.747 96.0434 147.172 102.905 158.663Z" fill="#F9BB78"/>
<path d="M75.9032 104.808C75.9032 104.808 77.0245 107.958 80.1574 108.225C82.8486 108.456 85.3957 107.131 87.481 104.982C89.3053 103.101 90.8885 101.986 89.0676 99.2985C86.9355 96.1554 84.8134 91.62 81.8612 90.9472C78.6813 90.2276 72.9844 93.0258 72.9844 95.66C72.981 98.7662 75.9032 104.808 75.9032 104.808Z" fill="#FFCE94"/>
<path d="M80.5501 108.252C82.6722 108.486 85.0186 106.799 87.4788 104.981C89.1457 103.753 89.7449 103.141 89.775 102.592C89.852 101.179 87.9272 98.7758 81.7416 102.525C78.0296 104.777 77.2129 107.884 80.5501 108.252Z" fill="#FFDBB3"/>
<path d="M179.711 136.05C178.442 136.716 178.486 138.533 177.746 139.755C176.29 142.162 172.598 141.456 170.165 140.043C167.731 138.631 164.996 136.736 162.369 137.737C158.342 139.27 158.476 146.182 154.329 147.34C149.944 148.565 146.751 141.907 142.205 142.128C138.791 142.292 136.917 146.142 136.12 149.469C135.324 152.796 134.507 156.692 131.431 158.181C129.309 159.209 126.695 158.663 124.706 157.392C122.721 156.12 121.232 154.222 119.783 152.361C116.931 148.696 114.079 145.03 111.227 141.365C110.119 139.939 108.948 138.467 107.318 137.693C105.684 136.92 103.452 137.098 102.414 138.574C101.125 140.411 102.297 142.912 103.468 144.826C114.671 163.109 125.875 181.391 137.078 199.673C140.003 204.45 143.159 209.444 148.107 212.071C152.153 214.22 156.93 214.508 161.502 214.224C168.909 213.762 176.618 212.634 182.961 208.781C194.82 201.578 207.342 197.317 183.637 139.765C183.239 138.795 183.158 137.68 182.499 136.863C181.84 136.046 180.638 135.564 179.711 136.05Z" fill="#FCC386"/>
<path d="M176.183 265.807L158.758 238.183C158.758 238.183 170.634 229.835 188.263 219.278C205.89 208.714 219.001 202.833 219.001 202.833L234.488 224.68L176.183 265.807Z" fill="#E6E6E6"/>
<path d="M230.136 227.745L179.326 263.59C179.326 263.59 164.916 239.129 162.801 235.413C167.704 232.116 176.759 226.165 188.266 219.273C200.557 211.909 210.649 206.818 215.636 204.412C216.992 206.561 230.136 227.745 230.136 227.745Z" fill="#F2F2F2"/>
<path d="M207.175 332.985L165.867 259.588C165.867 259.588 174.751 250.183 195.624 237.072C216.497 223.961 232.517 215.164 232.517 215.164L282.088 286.014L207.175 332.985Z" fill="#171F42"/>
<path d="M195.616 237.073C186.435 242.84 179.58 247.888 174.773 251.737L217.996 326.198L272.91 291.766L224.235 219.848C217.55 223.697 207.352 229.706 195.616 237.073Z" fill="#1A214C"/>
<path d="M195.62 237.072C190.519 240.275 186.161 243.244 182.449 245.922L229.584 318.93L263.07 297.934L216.678 224.255C210.76 227.75 203.557 232.088 195.62 237.072Z" fill="#202956"/>
</g>
</g>
<defs>
<clipPath id="clip0_327_24606">
<rect width="256" height="256" rx="128" fill="white"/>
</clipPath>
</defs>
</svg>
