<svg width="168" height="120" viewBox="0 0 168 120" fill="none" xmlns="http://www.w3.org/2000/svg">
<path d="M81.9618 57.0734L3.45786 62.0311L7.25079 75.7458L85.5122 69.5217L81.9618 57.0734Z" fill="#961903"/>
<path fill-rule="evenodd" clip-rule="evenodd" d="M1.22264 53.9489C0.594623 51.6781 2.22759 49.4087 4.58025 49.2826L75.6712 45.474C77.3897 45.382 78.9434 46.4905 79.4154 48.1455L81.9618 57.0734L3.45786 62.0311L1.22264 53.9489ZM7.25079 75.7458L85.5122 69.5217L96.086 106.595C96.7114 108.788 95.2171 111.017 92.9511 111.272L22.492 119.194C20.6901 119.396 19.0083 118.259 18.525 116.512L7.25079 75.7458ZM44.4911 77.59L14.2925 79.6647L16.8282 87.0415L46.7963 84.5057L44.4911 77.59ZM24.3616 108.738C24.9455 110.344 26.5556 111.338 28.2527 111.141L36.6713 110.165C39.0123 109.894 40.4835 107.505 39.6722 105.292C39.1131 103.767 37.6122 102.797 35.9922 102.913L27.4645 103.522C25.0215 103.696 23.4239 106.159 24.2609 108.461L24.3616 108.738Z" fill="#961903"/>
<path d="M82.8836 56.1514L4.37973 61.1091L8.17267 74.8238L86.434 68.5997L82.8836 56.1514Z" fill="#524849"/>
<path fill-rule="evenodd" clip-rule="evenodd" d="M2.14451 53.0269C1.5165 50.7561 3.14946 48.4867 5.50213 48.3606L76.5931 44.552C78.3115 44.46 79.8653 45.5685 80.3373 47.2235L82.8836 56.1514L4.37973 61.1091L2.14451 53.0269ZM8.17267 74.8238L86.434 68.5997L97.0079 105.673C97.6333 107.866 96.139 110.095 93.873 110.35L23.4139 118.272C21.612 118.474 19.9302 117.337 19.4468 115.59L8.17267 74.8238ZM45.413 76.668L15.2144 78.7427L17.7501 86.1195L47.7182 83.5837L45.413 76.668ZM25.2835 107.816C25.8674 109.422 27.4775 110.416 29.1746 110.219L37.5932 109.243C39.9342 108.972 41.4054 106.583 40.5941 104.37C40.035 102.845 38.5341 101.875 36.9141 101.991L28.3863 102.6C25.9434 102.774 24.3458 105.237 25.1828 107.539L25.2835 107.816Z" fill="#FB5537"/>
<path d="M40.5941 104.37C41.4054 106.583 39.9342 108.972 37.5932 109.243L29.1746 110.219C27.4775 110.416 25.8674 109.422 25.2835 107.816L25.1828 107.539C24.3458 105.237 25.9434 102.774 28.3863 102.6L36.9141 101.991C38.5341 101.875 40.035 102.845 40.5941 104.37Z" fill="#F0EEEC"/>
<path d="M15.2144 78.7427L45.413 76.668L47.7182 83.5837L17.7501 86.1195L15.2144 78.7427Z" fill="#B9BBC6"/>
<path d="M131.656 11.7069C132.338 11.3694 139.272 9.08681 140.569 8.65684C147.495 6.35988 154.402 3.92538 161.456 1.76153C162.515 1.43683 164.354 0.97331 165.563 0.921997C167.174 1.25071 167.262 2.90202 166.904 3.68879C166.626 5.89175 165.802 8.75272 165.205 10.9729L162.241 21.8202L159.412 32.1912C158.984 33.7664 158.491 36.07 157.914 37.5726L157.904 37.7024L154.314 50.6775C154.044 51.6278 152.922 54.5853 152.977 55.2854C152.486 56.5063 152.053 57.764 151.362 58.9499C148.416 62.4547 141.663 63.4092 136.112 65.2936C135.087 65.6419 133.424 66.0039 132.516 66.3864L112.867 72.1376C109.777 73.0451 105.088 74.3216 102.208 75.2983C100.221 75.7269 96.3032 77.0084 94.2629 77.5916C91.6379 78.3813 79.0891 82.3438 77.0489 81.9323C76.7834 81.8785 76.6118 81.7854 76.4283 81.6719C75.9144 81.1621 75.7787 80.8309 75.8367 80.2264C76.0091 78.4437 76.5128 76.6652 77.0182 74.9073L79.131 67.8259L85.8458 45.6589C87.4294 40.6164 88.8046 35.1171 90.6758 30.1335C91.0557 29.1773 92.0545 26.429 93.1395 25.6178C96.8913 22.8114 105.66 20.6464 110.914 18.643C111.779 18.3127 115.34 17.2207 115.709 16.9795C116.769 16.7731 118.491 16.0846 119.529 15.7685C122.91 14.7379 127.419 12.8918 130.743 12.0202C131.053 11.9088 131.34 11.8116 131.656 11.7069Z" fill="#4B180D"/>
<path d="M130.734 10.7849C131.416 10.4474 138.35 8.16481 139.647 7.73484C146.573 5.43789 153.48 3.00338 160.534 0.839529C161.593 0.514832 163.432 0.0513129 164.641 0C166.252 0.32871 166.34 1.98002 165.982 2.76679C165.704 4.96975 164.88 7.83072 164.283 10.0509L161.32 20.8982L158.491 31.2692C158.062 32.8444 157.569 35.148 156.992 36.6506L156.982 36.7804L153.393 49.7555C153.122 50.7058 152 53.6633 152.055 54.3634C151.564 55.5843 151.131 56.842 150.441 58.0279C147.494 61.5327 140.741 62.4872 135.19 64.3716C134.165 64.7199 132.502 65.0819 131.594 65.4644L111.945 71.2156C108.855 72.1231 104.166 73.3996 101.286 74.3763C99.2987 74.8049 95.3813 76.0864 93.341 76.6696C90.716 77.4593 78.1673 81.4218 76.127 81.0103C75.8615 80.9565 75.69 80.8634 75.5064 80.7499C74.9925 80.2401 74.8568 79.9089 74.9148 79.3044C75.0873 77.5217 75.5909 75.7432 76.0963 73.9853L78.2091 66.9039L84.924 44.7369C86.5075 39.6944 87.8827 34.1951 89.754 29.2115C90.1338 28.2553 91.1326 25.507 92.2176 24.6959C95.9695 21.8894 104.738 19.7244 109.992 17.721C110.857 17.3907 114.418 16.2987 114.788 16.0575C115.847 15.8511 117.57 15.1626 118.607 14.8465C121.988 13.8159 126.497 11.9698 129.821 11.0982C130.131 10.9868 130.418 10.8896 130.734 10.7849Z" fill="#DA4C30"/>
<path d="M130.732 10.7849C131.414 10.4474 138.348 8.16481 139.645 7.73484C146.571 5.43789 153.478 3.00338 160.532 0.839529C161.591 0.514832 163.43 0.0513129 164.639 0C166.25 0.32871 166.338 1.98002 165.98 2.76679L165.891 2.02536C165.932 2.35185 165.599 3.97338 165.219 4.20697L165.056 4.24651C164.876 4.29048 164.927 4.26221 164.86 4.30729L165.138 4.43374C165.108 5.28446 164.408 7.59968 164.158 8.53228L161.87 16.9467C161.75 17.3991 161.033 19.8343 161.037 20.1412C159.495 20.7368 157.216 21.4275 155.546 21.9637L146.618 24.8325L118.942 33.7529L96.7228 40.9298L88.8914 43.4827C87.8918 43.8063 85.9036 44.4876 84.9219 44.7369C86.5054 39.6944 87.8807 34.1951 89.7519 29.2115C90.1317 28.2553 91.1305 25.507 92.2155 24.6959C95.9674 21.8894 104.736 19.7244 109.99 17.721C110.855 17.3907 114.416 16.2987 114.785 16.0575C115.845 15.8511 117.567 15.1626 118.605 14.8465C121.986 13.8159 126.495 11.9698 129.819 11.0982C130.129 10.9868 130.416 10.8896 130.732 10.7849Z" fill="#524849"/>
<path d="M130.734 10.7849C131.416 10.4474 138.35 8.16481 139.647 7.73484C146.573 5.43789 153.48 3.00338 160.534 0.839529C161.593 0.514832 163.432 0.0513129 164.641 0C166.252 0.32871 166.34 1.98002 165.982 2.76679L165.893 2.02536C165.934 2.35185 165.601 3.97338 165.221 4.20697L165.058 4.24651C164.878 4.29048 164.929 4.26221 164.862 4.30729L114.376 21.0835L98.229 26.4333C95.5503 27.3178 92.4617 28.4013 89.7539 29.2115C90.1338 28.2553 91.1326 25.507 92.2176 24.6959C95.9694 21.8894 104.738 19.7244 109.992 17.721C110.857 17.3907 114.418 16.2987 114.787 16.0575C115.847 15.8511 117.57 15.1626 118.607 14.8465C121.988 13.8159 126.497 11.9698 129.821 11.0982C130.131 10.9868 130.418 10.8896 130.734 10.7849Z" fill="#DA4C30"/>
<path d="M150.358 25.261C150.575 25.267 150.469 25.2456 150.655 25.3575C150.419 26.7022 149.823 28.5097 149.44 29.8766L147.214 37.8775L103.059 51.621L102.899 51.5655C102.752 51.0361 106.04 40.6736 106.431 39.3468L150.358 25.261Z" fill="#B9BBC6"/>
<path d="M146.967 44.6378C147.975 44.66 148.927 44.8726 149.327 45.4455C150.775 47.5194 149.644 50.4257 148.517 52.4714C147.596 54.1439 145.948 56.1965 143.628 57.3832C142.707 57.8178 140.876 58.3344 139.823 58.6443L133.625 60.462C132.63 60.4714 131.633 60.2742 131.239 59.7047C129.807 57.6368 130.924 54.7424 132.044 52.701C132.951 51.0472 134.551 49.0459 136.803 47.8523C137.741 47.3973 139.816 46.7911 140.925 46.453C142.929 45.8382 144.944 45.2329 146.967 44.6378Z" fill="#F0EEEC"/>
</svg>
