<svg width="100" height="100" viewBox="0 0 100 100" fill="none" xmlns="http://www.w3.org/2000/svg">
<path d="M76.5167 23.4832L70.625 29.3749C65.8538 24.6032 59.5757 21.6335 52.8604 20.9717C46.1451 20.31 39.4081 21.9971 33.7972 25.7457C28.1864 29.4943 24.0489 35.0723 22.0897 41.5295C20.1306 47.9867 20.4709 54.9234 23.0528 61.1577C25.6347 67.3921 30.2984 72.5383 36.2493 75.7196C42.2001 78.9009 49.07 79.9204 55.6882 78.6044C62.3065 77.2884 68.2637 73.7183 72.5449 68.5025C76.826 63.2866 79.1662 56.7477 79.1667 49.9999H87.5C87.4999 58.6757 84.4916 67.0831 78.9877 73.7896C73.4838 80.496 65.8247 85.0866 57.3156 86.7791C48.8065 88.4716 39.9737 87.1613 32.3224 83.0715C24.671 78.9817 18.6745 72.3654 15.3544 64.3499C12.0344 56.3345 11.5963 47.4159 14.1148 39.1136C16.6333 30.8114 21.9526 23.6393 29.1663 18.8193C36.38 13.9993 45.0419 11.8297 53.6759 12.6802C62.3099 13.5306 70.382 17.3485 76.5167 23.4832Z" fill="#80828D"/>
</svg>
