<svg width="256" height="256" viewBox="0 0 256 256" fill="none" xmlns="http://www.w3.org/2000/svg">
<g clip-path="url(#clip0_329_28074)">
<rect width="256" height="256" rx="128" fill="#E7E8EC"/>
<path d="M256 0H0V256H256V0Z" fill="#EFF0F3"/>
<path d="M81.9567 261.385C82.5605 262.443 83.253 263 83.9599 263H166.039C167.193 263 168.288 261.505 169.042 258.9C169.659 256.766 170 254.033 170 251.208V6.79147C170 3.64119 169.588 0.680028 168.84 -1.54693C168.092 -3.77389 167.098 -5.00024 166.04 -5.00024H83.9599C82.902 -5.00024 81.9075 -3.77389 81.1597 -1.54693C80.4118 0.680028 80 3.64119 80 6.79147V251.208C80 255.371 80.7492 259.27 81.9567 261.385Z" fill="#464853"/>
<g filter="url(#filter0_di_329_28074)">
<g clip-path="url(#clip1_329_28074)">
<rect x="92.918" y="66.2974" width="64" height="64" rx="8" fill="url(#paint0_linear_329_28074)"/>
<g filter="url(#filter1_di_329_28074)">
<rect x="96.7578" y="70.1375" width="56.32" height="56.32" rx="8" fill="url(#paint1_radial_329_28074)"/>
<rect x="97.2578" y="70.6375" width="55.32" height="55.32" rx="7.5" stroke="#E4E4E7"/>
</g>
</g>
</g>
<path opacity="0.2" d="M255.195 299.172L228.044 224.006L227.276 224.283L222.147 210.081L214.601 212.806L214.667 173.438C214.668 172.691 214.637 171.946 214.573 171.204C214.478 170.091 214.31 168.986 214.071 167.895C213.832 166.804 213.521 165.729 213.141 164.675L209.989 155.95L201.263 131.792C201.136 131.44 200.987 131.101 200.825 130.77C200.776 130.67 200.719 130.574 200.667 130.475C200.546 130.246 200.42 130.022 200.283 129.804C200.218 129.702 200.151 129.602 200.082 129.503C199.938 129.291 199.787 129.087 199.629 128.888C199.563 128.805 199.498 128.722 199.429 128.641C199.235 128.411 199.031 128.193 198.818 127.983C198.78 127.944 198.744 127.904 198.704 127.866C198.163 127.347 197.57 126.893 196.937 126.506C196.926 126.499 196.915 126.494 196.904 126.487C196.601 126.304 196.287 126.138 195.967 125.987C195.936 125.973 195.906 125.96 195.876 125.945C195.561 125.801 195.239 125.674 194.911 125.563C194.899 125.559 194.887 125.553 194.875 125.549L194.875 125.551C192.979 124.919 190.891 124.85 188.862 125.517C185.94 126.478 183.796 128.669 182.773 131.31C182.766 131.295 182.758 131.282 182.751 131.267C182.524 130.774 182.256 130.311 181.96 129.873C181.935 129.836 181.913 129.797 181.887 129.76C181.755 129.571 181.613 129.391 181.469 129.212C181.432 129.167 181.399 129.119 181.361 129.075C181.209 128.893 181.048 128.721 180.884 128.552C180.852 128.518 180.821 128.483 180.789 128.45C180.614 128.275 180.432 128.109 180.246 127.949C180.221 127.928 180.197 127.906 180.172 127.885C179.976 127.719 179.773 127.562 179.564 127.413C179.549 127.402 179.535 127.39 179.519 127.38C179.302 127.225 179.078 127.081 178.85 126.945C178.844 126.941 178.837 126.937 178.831 126.933C178.595 126.794 178.355 126.665 178.109 126.546C175.814 125.434 173.095 125.204 170.506 126.139C167.727 127.143 165.687 129.273 164.695 131.825C164.694 131.829 164.691 131.833 164.69 131.838C164.564 131.56 164.425 131.292 164.276 131.032C164.212 130.919 164.139 130.813 164.07 130.703C163.982 130.563 163.898 130.421 163.804 130.286C163.705 130.145 163.598 130.012 163.494 129.877C163.422 129.786 163.353 129.691 163.279 129.602C163.15 129.448 163.013 129.303 162.875 129.157C162.819 129.098 162.765 129.036 162.707 128.979C162.548 128.819 162.382 128.668 162.214 128.52C162.175 128.487 162.136 128.451 162.096 128.418C161.908 128.258 161.715 128.109 161.516 127.965C161.493 127.948 161.471 127.931 161.448 127.915C161.235 127.763 161.017 127.621 160.793 127.487C160.783 127.482 160.774 127.476 160.764 127.47C160.53 127.331 160.29 127.202 160.046 127.082C157.746 125.962 155.02 125.727 152.422 126.666C149.258 127.809 147.042 130.411 146.254 133.439L130.883 90.8836C130.846 90.782 130.799 90.6872 130.759 90.587C130.287 89.396 129.61 88.3309 128.779 87.4263C128.776 87.4223 128.772 87.4189 128.768 87.4155C128.564 87.1948 128.353 86.9828 128.132 86.7817C128.122 86.7716 128.11 86.7628 128.098 86.7526C127.883 86.5583 127.662 86.3721 127.432 86.1974C127.416 86.1852 127.399 86.1751 127.383 86.1629C127.155 85.9916 126.922 85.8284 126.681 85.6774C126.668 85.6686 126.654 85.6618 126.64 85.653C124.317 84.2095 121.445 83.7125 118.665 84.571C113.271 86.2374 110.418 92.0461 112.314 97.2956L139.117 171.5C139.818 173.439 139.074 175.401 137.627 176.497C137.557 176.551 137.482 176.598 137.409 176.647C137.346 176.689 137.283 176.731 137.218 176.769C137.144 176.813 137.069 176.855 136.993 176.894C136.918 176.933 136.841 176.969 136.763 177.003C136.692 177.035 136.621 177.068 136.548 177.096C136.402 177.151 136.255 177.201 136.102 177.241C136.054 177.254 136.003 177.26 135.954 177.272C135.834 177.299 135.712 177.323 135.587 177.339C135.526 177.347 135.463 177.352 135.401 177.359C135.279 177.369 135.156 177.375 135.031 177.375C134.974 177.376 134.917 177.377 134.861 177.375C134.679 177.369 134.496 177.356 134.31 177.327L128.709 166.47C128.494 166.053 128.263 165.648 128.022 165.251C127.95 165.131 127.87 165.016 127.796 164.899C127.62 164.622 127.441 164.348 127.252 164.081C127.163 163.955 127.07 163.833 126.979 163.709C126.789 163.454 126.596 163.203 126.396 162.957C126.304 162.844 126.21 162.733 126.116 162.624C125.898 162.368 125.674 162.119 125.444 161.875C125.36 161.787 125.278 161.699 125.194 161.613C124.923 161.336 124.644 161.068 124.358 160.808C124.309 160.763 124.262 160.717 124.213 160.673C123.146 159.719 121.981 158.883 120.739 158.176C118.271 156.772 115.502 155.876 112.586 155.609C109.689 155.344 107.513 158.202 108.539 160.925L110.137 165.161L112.133 170.458L119.713 190.565C122.056 196.78 126.438 202.016 132.142 205.419L169.918 228.945L161.644 231.933L166.774 246.135L166.006 246.413L190.876 315.267H205.38H261.009L255.195 299.172Z" fill="#374763"/>
<path d="M207.802 131.792C205.98 126.749 200.495 123.842 195.401 125.518C192.478 126.479 190.334 128.67 189.311 131.311C187.215 126.695 181.895 124.388 177.044 126.14C174.261 127.145 172.219 129.28 171.228 131.838C169.132 127.223 163.811 124.915 158.961 126.667C155.796 127.81 153.581 130.412 152.792 133.44L137.421 90.8851C135.625 85.9111 130.256 83.0125 125.204 84.5725C119.809 86.2389 116.957 92.0476 118.852 97.2972L145.656 171.502C146.789 174.639 144.145 177.845 140.849 177.328L135.248 166.471C132.082 160.335 126.002 156.239 119.125 155.61C116.228 155.346 114.052 158.204 115.078 160.926L126.252 190.567C128.595 196.782 132.977 202.018 138.681 205.421L176.457 228.947L221.141 212.807L221.207 173.438C221.211 170.451 220.695 167.485 219.68 164.675L207.802 131.792Z" fill="#FFC85A"/>
<path d="M207.802 131.792C205.98 126.749 200.495 123.842 195.401 125.518C192.478 126.479 190.334 128.67 189.311 131.311C187.215 126.695 181.895 124.388 177.044 126.14C174.261 127.145 172.219 129.28 171.228 131.838C169.132 127.223 163.811 124.915 158.961 126.667C155.796 127.81 153.581 130.412 152.792 133.44L137.421 90.8851C135.625 85.9111 130.256 83.0125 125.204 84.5725C119.809 86.2389 116.957 92.0476 118.852 97.2972L145.656 171.502C146.789 174.639 144.145 177.845 140.849 177.328L135.248 166.471C132.082 160.335 126.002 156.239 119.125 155.61C116.228 155.346 114.052 158.204 115.078 160.926L126.252 190.567C128.595 196.782 132.977 202.018 138.681 205.421L176.457 228.947L221.141 212.807L221.207 173.438C221.211 170.451 220.695 167.485 219.68 164.675L207.802 131.792Z" fill="#FFBA7B"/>
<path opacity="0.4" d="M132.152 93.6691L124.898 96.2894C123.872 96.6598 122.74 96.129 122.37 95.1032L121.372 92.34C120.842 90.8747 121.601 89.2572 123.067 88.7283L128.728 86.6835C130.194 86.154 131.811 86.9131 132.34 88.3783L133.338 91.1415C133.71 92.1666 133.178 93.298 132.152 93.6691Z" fill="white"/>
<path opacity="0.4" d="M118.671 170.459L122.896 169.486C124.319 169.158 125.089 167.615 124.495 166.282L123.601 164.275C122.743 162.348 120.816 161.119 118.706 161.153L115.184 161.21L118.671 170.459Z" fill="white"/>
<path d="M154.449 142.133C155.167 141.874 155.538 141.083 155.278 140.366L137.299 90.5891C136.352 88.205 134.582 86.3254 132.426 85.2285L152.681 141.304C152.94 142.021 153.732 142.392 154.449 142.133Z" fill="#F49D56"/>
<path d="M172.41 139.139C173.127 138.88 173.498 138.089 173.239 137.372L171.236 131.827C171.235 131.831 171.232 131.835 171.231 131.839C170.256 129.694 168.582 128.057 166.586 127.084L170.641 138.311C170.9 139.027 171.692 139.399 172.41 139.139Z" fill="#F49D56"/>
<path d="M189.5 135.912C190.218 135.652 190.589 134.861 190.329 134.144L189.291 131.268C188.311 129.138 186.639 127.512 184.648 126.547L187.731 135.083C187.991 135.799 188.783 136.171 189.5 135.912Z" fill="#F49D56"/>
<path d="M136.248 176.706C136.248 176.706 142.598 178.743 144.169 176.499C143.274 177.177 142.112 177.526 140.852 177.329L135.251 166.471C133.427 162.937 130.634 160.085 127.281 158.178L136.248 176.706Z" fill="#F49D56"/>
<path d="M201.414 125.55L215.406 163.769C216.998 168.118 217.786 172.721 217.731 177.352L217.297 214.195L221.142 212.807L221.208 173.438C221.212 170.451 220.696 167.485 219.681 164.675L207.803 131.792C206.707 128.757 204.281 126.503 201.414 125.55Z" fill="#F49D56"/>
<path d="M175.706 252.717L236.207 230.865L228.7 210.082L168.199 231.935L175.706 252.717Z" fill="#DDDDDD"/>
<path d="M175.691 252.719L221.331 236.233C224.099 235.233 226.223 233.243 227.448 230.805C228.763 228.189 229.041 225.059 227.968 222.088C226.97 219.324 224.982 217.201 222.549 215.975C219.931 214.656 216.798 214.375 213.823 215.45L168.184 231.935L175.691 252.719Z" fill="#FFDACB"/>
<path d="M261.736 299.172L197.417 315.267L172.547 246.414L234.585 224.006L261.736 299.172Z" fill="#47587C"/>
<path d="M267.55 315.267H197.417L172.547 246.414L234.585 224.006L267.55 315.267Z" fill="#47587C"/>
<path d="M267.55 315.267L251.049 314.53L218.73 229.732L234.585 224.006L267.55 315.267Z" fill="#374763"/>
<path d="M211.921 315.267H197.417L172.547 246.414L185.377 241.78L211.921 315.267Z" fill="#597099"/>
</g>
<defs>
<filter id="filter0_di_329_28074" x="76.918" y="66.2974" width="96" height="96" filterUnits="userSpaceOnUse" color-interpolation-filters="sRGB">
<feFlood flood-opacity="0" result="BackgroundImageFix"/>
<feColorMatrix in="SourceAlpha" type="matrix" values="0 0 0 0 0 0 0 0 0 0 0 0 0 0 0 0 0 0 127 0" result="hardAlpha"/>
<feOffset dy="16"/>
<feGaussianBlur stdDeviation="8"/>
<feComposite in2="hardAlpha" operator="out"/>
<feColorMatrix type="matrix" values="0 0 0 0 0 0 0 0 0 0 0 0 0 0 0 0 0 0 0.7 0"/>
<feBlend mode="normal" in2="BackgroundImageFix" result="effect1_dropShadow_329_28074"/>
<feBlend mode="normal" in="SourceGraphic" in2="effect1_dropShadow_329_28074" result="shape"/>
<feColorMatrix in="SourceAlpha" type="matrix" values="0 0 0 0 0 0 0 0 0 0 0 0 0 0 0 0 0 0 127 0" result="hardAlpha"/>
<feOffset dy="4"/>
<feGaussianBlur stdDeviation="2"/>
<feComposite in2="hardAlpha" operator="arithmetic" k2="-1" k3="1"/>
<feColorMatrix type="matrix" values="0 0 0 0 1 0 0 0 0 1 0 0 0 0 1 0 0 0 0.5 0"/>
<feBlend mode="normal" in2="shape" result="effect2_innerShadow_329_28074"/>
</filter>
<filter id="filter1_di_329_28074" x="88.7578" y="66.1375" width="72.3203" height="72.3201" filterUnits="userSpaceOnUse" color-interpolation-filters="sRGB">
<feFlood flood-opacity="0" result="BackgroundImageFix"/>
<feColorMatrix in="SourceAlpha" type="matrix" values="0 0 0 0 0 0 0 0 0 0 0 0 0 0 0 0 0 0 127 0" result="hardAlpha"/>
<feOffset dy="4"/>
<feGaussianBlur stdDeviation="4"/>
<feComposite in2="hardAlpha" operator="out"/>
<feColorMatrix type="matrix" values="0 0 0 0 0 0 0 0 0 0 0 0 0 0 0 0 0 0 0.25 0"/>
<feBlend mode="normal" in2="BackgroundImageFix" result="effect1_dropShadow_329_28074"/>
<feBlend mode="normal" in="SourceGraphic" in2="effect1_dropShadow_329_28074" result="shape"/>
<feColorMatrix in="SourceAlpha" type="matrix" values="0 0 0 0 0 0 0 0 0 0 0 0 0 0 0 0 0 0 127 0" result="hardAlpha"/>
<feOffset dy="4"/>
<feGaussianBlur stdDeviation="2"/>
<feComposite in2="hardAlpha" operator="arithmetic" k2="-1" k3="1"/>
<feColorMatrix type="matrix" values="0 0 0 0 1 0 0 0 0 1 0 0 0 0 1 0 0 0 0.5 0"/>
<feBlend mode="normal" in2="shape" result="effect2_innerShadow_329_28074"/>
</filter>
<linearGradient id="paint0_linear_329_28074" x1="92.918" y1="66.2974" x2="156.918" y2="128.697" gradientUnits="userSpaceOnUse">
<stop stop-color="#A9AAB1"/>
<stop offset="1" stop-color="#A2A5BE"/>
</linearGradient>
<radialGradient id="paint1_radial_329_28074" cx="0" cy="0" r="1" gradientUnits="userSpaceOnUse" gradientTransform="translate(124.918 98.2975) rotate(90) scale(28.16)">
<stop stop-color="#E7E7E9"/>
<stop offset="1" stop-color="#C9CACF"/>
</radialGradient>
<clipPath id="clip0_329_28074">
<rect width="256" height="256" rx="128" fill="white"/>
</clipPath>
<clipPath id="clip1_329_28074">
<rect x="92.918" y="66.2974" width="64" height="64" rx="8" fill="white"/>
</clipPath>
</defs>
</svg>
