<svg width="132" height="132" viewBox="0 0 132 132" fill="none" xmlns="http://www.w3.org/2000/svg">
<path d="M99 99C117.225 80.7746 117.225 51.2254 99 33C80.7746 14.7746 51.2254 14.7746 33 33C14.7746 51.2254 14.7746 80.7746 33 99C51.2254 117.225 80.7746 117.225 99 99Z" fill="#3FC700"/>
<path d="M120.028 51.8026C117.526 42.2546 112.503 33.5065 105.5 26.504C94.9509 15.9546 80.9244 10.145 66.0054 10.145C51.0858 10.145 37.0592 15.9546 26.5098 26.504C19.5081 33.5057 14.4848 42.2536 11.9824 51.8015L10.082 51.3037C12.6725 41.4187 17.8731 32.3631 25.1211 25.1153C36.0412 14.1947 50.5612 8.18042 66.0054 8.18042C81.4493 8.18042 95.969 14.1947 106.889 25.1153C114.138 32.3633 119.338 41.4198 121.929 51.3048L120.028 51.8026Z" fill="#3FC700"/>
<path d="M124.506 50.5304C124.975 52.5148 123.746 54.5046 121.762 54.9737C119.777 55.4429 117.788 54.2141 117.319 52.2297C116.849 50.2454 118.078 48.2555 120.063 47.7864C122.047 47.3172 124.037 48.5458 124.506 50.5304Z" fill="#3FC700"/>
<path d="M7.50225 50.5304C7.03298 52.5148 8.2618 54.5046 10.2462 54.9737C12.2307 55.4429 14.2204 54.2141 14.6897 52.2297C15.1588 50.2454 13.9301 48.2555 11.9457 47.7864C9.96098 47.3172 7.97133 48.5458 7.50225 50.5304Z" fill="#3FC700"/>
<path d="M66.0031 123.818C50.5595 123.818 36.0395 117.804 25.1188 106.883C18.0353 99.7998 12.8939 90.9686 10.25 81.3432L12.144 80.823C14.6975 90.1205 19.665 98.6515 26.5074 105.495C37.0573 116.044 51.0839 121.854 66.0029 121.854C80.9214 121.854 94.948 116.044 105.498 105.495C112.341 98.6515 117.308 90.1205 119.861 80.8241L121.755 81.3443C119.112 90.9686 113.971 99.7998 106.886 106.883C95.9661 117.804 81.4467 123.818 66.0031 123.818Z" fill="#3FC700"/>
<path d="M7.67974 82.1457C7.18883 80.1664 8.39584 78.1635 10.3749 77.6726C12.354 77.1819 14.3572 78.3887 14.8481 80.368C15.339 82.3471 14.1322 84.3502 12.1529 84.8411C10.1734 85.3318 8.17047 84.125 7.67974 82.1457Z" fill="#3FC700"/>
<path d="M124.328 82.1457C124.82 80.1664 123.613 78.1635 121.633 77.6726C119.654 77.1819 117.651 78.3887 117.16 80.368C116.669 82.3471 117.876 84.3502 119.855 84.8411C121.835 85.3318 123.838 84.125 124.328 82.1457Z" fill="#3FC700"/>
<path d="M85.6295 44.1975L57.5068 72.3202L46.3728 61.1862L38.6328 68.9264L57.5068 87.8004L93.3699 51.9375L85.6295 44.1975Z" fill="white"/>
</svg>
