<svg width="80" height="80" viewBox="0 0 80 80" fill="none" xmlns="http://www.w3.org/2000/svg">
<path d="M64.1647 22.9065C64.5599 22.5112 65.0482 22.2217 65.5847 22.0645C66.1211 21.9073 66.6884 21.8876 67.2345 22.0071C67.7806 22.1266 68.2878 22.3815 68.7096 22.7484C69.1313 23.1152 69.454 23.5823 69.648 24.1065C71.1983 28.2709 71.5274 32.7914 70.5966 37.1365C69.6658 41.4815 67.5139 45.4705 64.3937 48.6344C61.2735 51.7983 57.3149 54.0057 52.9833 54.9969C48.6516 55.9881 44.127 55.722 39.9414 54.2299L26.5647 67.6065C25.636 68.5352 24.5336 69.2718 23.3202 69.7744C22.1068 70.277 20.8064 70.5357 19.493 70.5357C18.1797 70.5357 16.8792 70.277 15.6659 69.7744C14.4525 69.2718 13.35 68.5352 12.4214 67.6065C11.4927 66.6779 10.756 65.5754 10.2535 64.362C9.75087 63.1487 9.49219 61.8482 9.49219 60.5349C9.49219 59.2215 9.75087 57.9211 10.2535 56.7077C10.756 55.4943 11.4927 54.3918 12.4214 53.4632L25.798 40.0865C24.3052 35.9041 24.0368 31.3826 25.0245 27.053C26.0121 22.7234 28.2149 18.7655 31.3738 15.6443C34.5328 12.5232 38.5169 10.3683 42.8581 9.43278C47.1993 8.49729 51.7173 8.82007 55.8814 10.3632C56.4056 10.5572 56.8726 10.8799 57.2395 11.3017C57.6064 11.7234 57.8613 12.2307 57.9808 12.7767C58.1003 13.3228 58.0805 13.8901 57.9234 14.4266C57.7662 14.963 57.4767 15.4513 57.0814 15.8465L49.228 23.6999C48.2901 24.6374 47.7629 25.9091 47.7626 27.2353C47.7623 28.5615 48.2888 29.8335 49.2264 30.7715C50.1639 31.7095 51.4357 32.2366 52.7619 32.2369C54.0881 32.2373 55.3601 31.7107 56.298 30.7732L64.1647 22.9065Z" fill="#80828D"/>
</svg>
