<svg width="20" height="20" viewBox="0 0 20 20" fill="none" xmlns="http://www.w3.org/2000/svg">
<path fill-rule="evenodd" clip-rule="evenodd" d="M1.91107 5.30601C1.89345 5.34446 1.93466 5.22452 1.94662 5.18408L1.99285 5.02294C2.47402 3.37277 2.95357 1.72153 3.43345 0.0692139L18.8863 0.0990833L1.80859 13.2634L9.61283 4.35141L3.75121 4.36627C3.64195 4.36658 3.5343 4.36489 3.42504 4.37378C2.73068 4.42969 2.12765 4.82978 1.91107 5.30601Z" fill="#636463"/>
<path d="M1.91107 5.30601C1.89345 5.34446 1.93466 5.22452 1.94662 5.18408L1.99285 5.02294C2.47402 3.37277 2.95357 1.72153 3.43345 0.0692139L18.8863 0.0990833L1.80859 13.2634L9.61283 4.35141L3.75121 4.36627C3.64195 4.36658 3.5343 4.36489 3.42504 4.37378C2.73068 4.42969 2.12765 4.82978 1.91107 5.30601Z" stroke="#FFFCFC" stroke-width="0.138195" stroke-miterlimit="22.926"/>
<path fill-rule="evenodd" clip-rule="evenodd" d="M18.0466 9.0953C18.0639 9.05686 17.5798 11.9009 16.725 14.8406L0.597656 14.926L18.0154 1.5575L10.2092 10.5531L16.072 10.537C16.1804 10.537 16.2886 10.5395 16.3973 10.53C17.0922 10.4737 17.8303 9.57184 18.0466 9.0953Z" fill="#D22F14"/>
<path d="M18.0466 9.0953C18.0639 9.05686 17.5798 11.9009 16.725 14.8406L0.597656 14.926L18.0154 1.5575L10.2092 10.5531L16.072 10.537C16.1804 10.537 16.2886 10.5395 16.3973 10.53C17.0922 10.4737 17.8303 9.57184 18.0466 9.0953Z" stroke="#FFFCFC" stroke-width="0.138195" stroke-miterlimit="22.926"/>
<path fill-rule="evenodd" clip-rule="evenodd" d="M2.74397 19.0265H0L1.89655 16.5847H0.638271L0.730238 15.9105H3.34393L1.4511 18.3473H2.83545L2.74397 19.0265ZM3.26215 19.0265H5.16436L5.2581 18.328H4.18117L4.25245 17.8028H5.26828L5.35863 17.1339H4.34296L4.41569 16.5933H5.49262L5.58491 15.9105H3.68287L3.26215 19.0265ZM5.72391 19.0265L6.14496 15.9105H6.9615L7.9177 17.513C7.93612 17.5453 7.96344 17.6109 8.00288 17.7097C8.04118 17.8089 8.08127 17.9255 8.12523 18.0621C8.12555 17.9335 8.12895 17.8189 8.1346 17.7172C8.14026 17.6165 8.1485 17.5272 8.15982 17.4494L8.36735 15.9106H9.17986L8.75881 19.0267H7.94598L6.99124 17.4171C6.97136 17.3843 6.94243 17.3189 6.90413 17.2207C6.86614 17.1215 6.82574 17.0052 6.78323 16.8726C6.78177 17.0031 6.77838 17.1187 6.77353 17.2197C6.76755 17.32 6.75882 17.4093 6.74767 17.4879L6.54046 19.0267L5.72391 19.0265ZM9.44573 19.0265L9.86645 15.9105H10.7216L10.3009 19.0265H9.44573ZM11.4309 19.0265L11.752 16.6463H11.0556L11.1558 15.9105H13.3935L13.2936 16.6463H12.5983L12.2763 19.0265H11.4309ZM13.3859 19.0265H14.232L14.4032 17.7579H15.5312L15.36 19.0265H16.2084L16.6292 15.9105H15.7808L15.6172 17.1213H14.4895L14.6528 15.9105H13.8061L13.3859 19.0265Z" fill="#B2B3B2"/>
</svg>
